<svg width="24" height="25" viewBox="0 0 24 25" fill="none" xmlns="http://www.w3.org/2000/svg">
<mask id="mask0_186_1004" style="mask-type:alpha" maskUnits="userSpaceOnUse" x="0" y="0" width="24" height="25">
<rect y="0.5" width="24" height="24" fill="#D9D9D9"/>
</mask>
<g mask="url(#mask0_186_1004)">
<path d="M10 19.5C9.71667 19.5 9.47917 19.4042 9.2875 19.2125C9.09583 19.0208 9 18.7833 9 18.5C9 18.2167 9.09583 17.9792 9.2875 17.7875C9.47917 17.5958 9.71667 17.5 10 17.5H20C20.2833 17.5 20.5208 17.5958 20.7125 17.7875C20.9042 17.9792 21 18.2167 21 18.5C21 18.7833 20.9042 19.0208 20.7125 19.2125C20.5208 19.4042 20.2833 19.5 20 19.5H10ZM10 13.5C9.71667 13.5 9.47917 13.4042 9.2875 13.2125C9.09583 13.0208 9 12.7833 9 12.5C9 12.2167 9.09583 11.9792 9.2875 11.7875C9.47917 11.5958 9.71667 11.5 10 11.5H20C20.2833 11.5 20.5208 11.5958 20.7125 11.7875C20.9042 11.9792 21 12.2167 21 12.5C21 12.7833 20.9042 13.0208 20.7125 13.2125C20.5208 13.4042 20.2833 13.5 20 13.5H10ZM10 7.5C9.71667 7.5 9.47917 7.40417 9.2875 7.2125C9.09583 7.02083 9 6.78333 9 6.5C9 6.21667 9.09583 5.97917 9.2875 5.7875C9.47917 5.59583 9.71667 5.5 10 5.5H20C20.2833 5.5 20.5208 5.59583 20.7125 5.7875C20.9042 5.97917 21 6.21667 21 6.5C21 6.78333 20.9042 7.02083 20.7125 7.2125C20.5208 7.40417 20.2833 7.5 20 7.5H10ZM5 20.5C4.45 20.5 3.97917 20.3042 3.5875 19.9125C3.19583 19.5208 3 19.05 3 18.5C3 17.95 3.19583 17.4792 3.5875 17.0875C3.97917 16.6958 4.45 16.5 5 16.5C5.55 16.5 6.02083 16.6958 6.4125 17.0875C6.80417 17.4792 7 17.95 7 18.5C7 19.05 6.80417 19.5208 6.4125 19.9125C6.02083 20.3042 5.55 20.5 5 20.5ZM5 14.5C4.45 14.5 3.97917 14.3042 3.5875 13.9125C3.19583 13.5208 3 13.05 3 12.5C3 11.95 3.19583 11.4792 3.5875 11.0875C3.97917 10.6958 4.45 10.5 5 10.5C5.55 10.5 6.02083 10.6958 6.4125 11.0875C6.80417 11.4792 7 11.95 7 12.5C7 13.05 6.80417 13.5208 6.4125 13.9125C6.02083 14.3042 5.55 14.5 5 14.5ZM5 8.5C4.45 8.5 3.97917 8.30417 3.5875 7.9125C3.19583 7.52083 3 7.05 3 6.5C3 5.95 3.19583 5.47917 3.5875 5.0875C3.97917 4.69583 4.45 4.5 5 4.5C5.55 4.5 6.02083 4.69583 6.4125 5.0875C6.80417 5.47917 7 5.95 7 6.5C7 7.05 6.80417 7.52083 6.4125 7.9125C6.02083 8.30417 5.55 8.5 5 8.5Z" fill="#FFCC00"/>
</g>
</svg>
