<svg width="12" height="12" viewBox="0 0 12 12" fill="none" xmlns="http://www.w3.org/2000/svg">
<path d="M5.16675 6.83342H1.00008C0.76397 6.83342 0.566054 6.75355 0.406331 6.59383C0.246609 6.43411 0.166748 6.23619 0.166748 6.00008C0.166748 5.76397 0.246609 5.56605 0.406331 5.40633C0.566054 5.24661 0.76397 5.16675 1.00008 5.16675H5.16675V1.00008C5.16675 0.76397 5.24661 0.566054 5.40633 0.406331C5.56605 0.246609 5.76397 0.166748 6.00008 0.166748C6.23619 0.166748 6.43411 0.246609 6.59383 0.406331C6.75355 0.566054 6.83342 0.76397 6.83342 1.00008V5.16675H11.0001C11.2362 5.16675 11.4341 5.24661 11.5938 5.40633C11.7536 5.56605 11.8334 5.76397 11.8334 6.00008C11.8334 6.23619 11.7536 6.43411 11.5938 6.59383C11.4341 6.75355 11.2362 6.83342 11.0001 6.83342H6.83342V11.0001C6.83342 11.2362 6.75355 11.4341 6.59383 11.5938C6.43411 11.7536 6.23619 11.8334 6.00008 11.8334C5.76397 11.8334 5.56605 11.7536 5.40633 11.5938C5.24661 11.4341 5.16675 11.2362 5.16675 11.0001V6.83342Z" fill="#1C1B1F"/>
</svg>
