<svg width="14" height="14" viewBox="0 0 14 14" fill="none" xmlns="http://www.w3.org/2000/svg">
<path d="M10.4791 7.8333H1.16659C0.930474 7.8333 0.732558 7.75344 0.572835 7.59372C0.413113 7.434 0.333252 7.23608 0.333252 6.99997C0.333252 6.76386 0.413113 6.56594 0.572835 6.40622C0.732558 6.2465 0.930474 6.16664 1.16659 6.16664H10.4791L6.39575 2.0833C6.22909 1.91664 6.14922 1.72219 6.15617 1.49997C6.16311 1.27775 6.24992 1.0833 6.41659 0.916636C6.58325 0.763858 6.7777 0.683997 6.99992 0.677052C7.22214 0.670108 7.41658 0.749969 7.58325 0.916636L13.0833 6.41664C13.1666 6.49997 13.2256 6.59025 13.2603 6.68747C13.2951 6.78469 13.3124 6.88886 13.3124 6.99997C13.3124 7.11108 13.2951 7.21525 13.2603 7.31247C13.2256 7.40969 13.1666 7.49997 13.0833 7.5833L7.58325 13.0833C7.43047 13.2361 7.2395 13.3125 7.01033 13.3125C6.78117 13.3125 6.58325 13.2361 6.41659 13.0833C6.24992 12.9166 6.16658 12.7187 6.16658 12.4896C6.16658 12.2604 6.24992 12.0625 6.41659 11.8958L10.4791 7.8333Z" fill="#FFCC00"/>
</svg>
