<svg width="18" height="18" viewBox="0 0 18 18" fill="none" xmlns="http://www.w3.org/2000/svg">
<path d="M7.6251 10.4625L5.4861 8.32348C5.30376 8.14114 5.08343 8.04998 4.8251 8.04998C4.56676 8.04998 4.34593 8.14164 4.1626 8.32498C3.97926 8.50831 3.8876 8.72914 3.8876 8.98748C3.8876 9.24581 3.97776 9.46514 4.1581 9.64548L6.9626 12.45C7.15127 12.6416 7.37135 12.7375 7.62285 12.7375C7.87435 12.7375 8.09593 12.6416 8.2876 12.45L13.8376 6.89998C14.0209 6.71664 14.1126 6.49581 14.1126 6.23748C14.1126 5.97914 14.0209 5.75831 13.8376 5.57498C13.6543 5.39164 13.4334 5.29998 13.1751 5.29998C12.9168 5.29998 12.697 5.39056 12.5158 5.57173L7.6251 10.4625ZM2.1001 17.775C1.58443 17.775 1.14301 17.5914 0.775848 17.2242C0.408681 16.8571 0.225098 16.4156 0.225098 15.9V2.09998C0.225098 1.58431 0.408681 1.14289 0.775848 0.775726C1.14301 0.40856 1.58443 0.224976 2.1001 0.224976H15.9001C16.4158 0.224976 16.8572 0.40856 17.2243 0.775726C17.5915 1.14289 17.7751 1.58431 17.7751 2.09998V15.9C17.7751 16.4156 17.5915 16.8571 17.2243 17.2242C16.8572 17.5914 16.4158 17.775 15.9001 17.775H2.1001Z" fill="#FFCC00"/>
</svg>
