<svg width="12" height="12" viewBox="0 0 12 12" fill="none" xmlns="http://www.w3.org/2000/svg">
<path d="M6.00001 7.16659L1.91668 11.2499C1.7639 11.4027 1.56945 11.4791 1.33334 11.4791C1.09723 11.4791 0.902788 11.4027 0.75001 11.2499C0.597232 11.0971 0.520844 10.9027 0.520844 10.6666C0.520844 10.4305 0.597232 10.236 0.75001 10.0833L4.83334 5.99992L0.75001 1.91659C0.597232 1.76381 0.520844 1.56936 0.520844 1.33325C0.520844 1.09714 0.597232 0.902696 0.75001 0.749919C0.902788 0.597141 1.09723 0.520752 1.33334 0.520752C1.56945 0.520752 1.7639 0.597141 1.91668 0.749919L6.00001 4.83325L10.0833 0.749919C10.2361 0.597141 10.4306 0.520752 10.6667 0.520752C10.9028 0.520752 11.0972 0.597141 11.25 0.749919C11.4028 0.902696 11.4792 1.09714 11.4792 1.33325C11.4792 1.56936 11.4028 1.76381 11.25 1.91659L7.16668 5.99992L11.25 10.0833C11.4028 10.236 11.4792 10.4305 11.4792 10.6666C11.4792 10.9027 11.4028 11.0971 11.25 11.2499C11.0972 11.4027 10.9028 11.4791 10.6667 11.4791C10.4306 11.4791 10.2361 11.4027 10.0833 11.2499L6.00001 7.16659Z" fill="#FFCC00"/>
</svg>
