<svg width="25" height="24" viewBox="0 0 25 24" fill="none" xmlns="http://www.w3.org/2000/svg">
<mask id="mask0_142_1339" style="mask-type:alpha" maskUnits="userSpaceOnUse" x="0" y="0" width="25" height="24">
<rect x="0.0834961" width="24" height="24" fill="#FFE787"/>
</mask>
<g mask="url(#mask0_142_1339)">
<path d="M6.0835 18L3.7835 20.3C3.46683 20.6167 3.10433 20.6875 2.696 20.5125C2.28766 20.3375 2.0835 20.025 2.0835 19.575V4C2.0835 3.45 2.27933 2.97917 2.671 2.5875C3.06266 2.19583 3.5335 2 4.0835 2H20.0835C20.6335 2 21.1043 2.19583 21.496 2.5875C21.8877 2.97917 22.0835 3.45 22.0835 4V16C22.0835 16.55 21.8877 17.0208 21.496 17.4125C21.1043 17.8042 20.6335 18 20.0835 18H6.0835Z" fill="#FFE787"/>
</g>
</svg>
