<svg width="16" height="16" viewBox="0 0 16 16" fill="none" xmlns="http://www.w3.org/2000/svg">
<path d="M9.66667 5.5C9.43056 5.5 9.23264 5.42014 9.07292 5.26042C8.91319 5.10069 8.83333 4.90278 8.83333 4.66667V1.33333C8.83333 1.09722 8.91319 0.899306 9.07292 0.739583C9.23264 0.579861 9.43056 0.5 9.66667 0.5H14.6667C14.9028 0.5 15.1007 0.579861 15.2604 0.739583C15.4201 0.899306 15.5 1.09722 15.5 1.33333V4.66667C15.5 4.90278 15.4201 5.10069 15.2604 5.26042C15.1007 5.42014 14.9028 5.5 14.6667 5.5H9.66667ZM1.33333 8.83333C1.09722 8.83333 0.899306 8.75347 0.739583 8.59375C0.579861 8.43403 0.5 8.23611 0.5 8V1.33333C0.5 1.09722 0.579861 0.899306 0.739583 0.739583C0.899306 0.579861 1.09722 0.5 1.33333 0.5H6.33333C6.56944 0.5 6.76736 0.579861 6.92708 0.739583C7.08681 0.899306 7.16667 1.09722 7.16667 1.33333V8C7.16667 8.23611 7.08681 8.43403 6.92708 8.59375C6.76736 8.75347 6.56944 8.83333 6.33333 8.83333H1.33333ZM9.66667 15.5C9.43056 15.5 9.23264 15.4201 9.07292 15.2604C8.91319 15.1007 8.83333 14.9028 8.83333 14.6667V8C8.83333 7.76389 8.91319 7.56597 9.07292 7.40625C9.23264 7.24653 9.43056 7.16667 9.66667 7.16667H14.6667C14.9028 7.16667 15.1007 7.24653 15.2604 7.40625C15.4201 7.56597 15.5 7.76389 15.5 8V14.6667C15.5 14.9028 15.4201 15.1007 15.2604 15.2604C15.1007 15.4201 14.9028 15.5 14.6667 15.5H9.66667ZM1.33333 15.5C1.09722 15.5 0.899306 15.4201 0.739583 15.2604C0.579861 15.1007 0.5 14.9028 0.5 14.6667V11.3333C0.5 11.0972 0.579861 10.8993 0.739583 10.7396C0.899306 10.5799 1.09722 10.5 1.33333 10.5H6.33333C6.56944 10.5 6.76736 10.5799 6.92708 10.7396C7.08681 10.8993 7.16667 11.0972 7.16667 11.3333V14.6667C7.16667 14.9028 7.08681 15.1007 6.92708 15.2604C6.76736 15.4201 6.56944 15.5 6.33333 15.5H1.33333Z" fill="#FFCC00"/>
</svg>
