<svg width="14" height="16" viewBox="0 0 14 16" fill="none" xmlns="http://www.w3.org/2000/svg">
<path d="M2.83398 15.5C2.37565 15.5 1.98329 15.3368 1.6569 15.0104C1.33051 14.684 1.16732 14.2917 1.16732 13.8333V3C0.931207 3 0.73329 2.92014 0.573568 2.76042C0.413845 2.60069 0.333984 2.40278 0.333984 2.16667C0.333984 1.93056 0.413845 1.73264 0.573568 1.57292C0.73329 1.41319 0.931207 1.33333 1.16732 1.33333H4.50065C4.50065 1.09722 4.58051 0.899306 4.74023 0.739583C4.89996 0.579861 5.09787 0.5 5.33398 0.5H8.66732C8.90343 0.5 9.10135 0.579861 9.26107 0.739583C9.42079 0.899306 9.50065 1.09722 9.50065 1.33333H12.834C13.0701 1.33333 13.268 1.41319 13.4277 1.57292C13.5875 1.73264 13.6673 1.93056 13.6673 2.16667C13.6673 2.40278 13.5875 2.60069 13.4277 2.76042C13.268 2.92014 13.0701 3 12.834 3V13.8333C12.834 14.2917 12.6708 14.684 12.3444 15.0104C12.018 15.3368 11.6257 15.5 11.1673 15.5H2.83398ZM5.33398 12.1667C5.5701 12.1667 5.76801 12.0868 5.92773 11.9271C6.08746 11.7674 6.16732 11.5694 6.16732 11.3333V5.5C6.16732 5.26389 6.08746 5.06597 5.92773 4.90625C5.76801 4.74653 5.5701 4.66667 5.33398 4.66667C5.09787 4.66667 4.89996 4.74653 4.74023 4.90625C4.58051 5.06597 4.50065 5.26389 4.50065 5.5V11.3333C4.50065 11.5694 4.58051 11.7674 4.74023 11.9271C4.89996 12.0868 5.09787 12.1667 5.33398 12.1667ZM8.66732 12.1667C8.90343 12.1667 9.10135 12.0868 9.26107 11.9271C9.42079 11.7674 9.50065 11.5694 9.50065 11.3333V5.5C9.50065 5.26389 9.42079 5.06597 9.26107 4.90625C9.10135 4.74653 8.90343 4.66667 8.66732 4.66667C8.43121 4.66667 8.23329 4.74653 8.07357 4.90625C7.91385 5.06597 7.83398 5.26389 7.83398 5.5V11.3333C7.83398 11.5694 7.91385 11.7674 8.07357 11.9271C8.23329 12.0868 8.43121 12.1667 8.66732 12.1667Z" fill="#FFCC00"/>
</svg>
