<svg width="14" height="16" viewBox="0 0 14 16" fill="none" xmlns="http://www.w3.org/2000/svg">
<path d="M2.8338 15.5C2.37547 15.5 1.98311 15.3368 1.65672 15.0104C1.33033 14.684 1.16713 14.2917 1.16713 13.8333V3C0.931023 3 0.733107 2.92014 0.573385 2.76042C0.413662 2.60069 0.333801 2.40278 0.333801 2.16667C0.333801 1.93056 0.413662 1.73264 0.573385 1.57292C0.733107 1.41319 0.931023 1.33333 1.16713 1.33333H4.50047C4.50047 1.09722 4.58033 0.899306 4.74005 0.739583C4.89977 0.579861 5.09769 0.5 5.3338 0.5H8.66713C8.90324 0.5 9.10116 0.579861 9.26088 0.739583C9.42061 0.899306 9.50047 1.09722 9.50047 1.33333H12.8338C13.0699 1.33333 13.2678 1.41319 13.4276 1.57292C13.5873 1.73264 13.6671 1.93056 13.6671 2.16667C13.6671 2.40278 13.5873 2.60069 13.4276 2.76042C13.2678 2.92014 13.0699 3 12.8338 3V13.8333C12.8338 14.2917 12.6706 14.684 12.3442 15.0104C12.0178 15.3368 11.6255 15.5 11.1671 15.5H2.8338ZM5.3338 12.1667C5.56991 12.1667 5.76783 12.0868 5.92755 11.9271C6.08727 11.7674 6.16713 11.5694 6.16713 11.3333V5.5C6.16713 5.26389 6.08727 5.06597 5.92755 4.90625C5.76783 4.74653 5.56991 4.66667 5.3338 4.66667C5.09769 4.66667 4.89977 4.74653 4.74005 4.90625C4.58033 5.06597 4.50047 5.26389 4.50047 5.5V11.3333C4.50047 11.5694 4.58033 11.7674 4.74005 11.9271C4.89977 12.0868 5.09769 12.1667 5.3338 12.1667ZM8.66713 12.1667C8.90324 12.1667 9.10116 12.0868 9.26088 11.9271C9.42061 11.7674 9.50047 11.5694 9.50047 11.3333V5.5C9.50047 5.26389 9.42061 5.06597 9.26088 4.90625C9.10116 4.74653 8.90324 4.66667 8.66713 4.66667C8.43102 4.66667 8.23311 4.74653 8.07338 4.90625C7.91366 5.06597 7.8338 5.26389 7.8338 5.5V11.3333C7.8338 11.5694 7.91366 11.7674 8.07338 11.9271C8.23311 12.0868 8.43102 12.1667 8.66713 12.1667Z" fill="#213049"/>
</svg>
