<svg width="16" height="16" viewBox="0 0 16 16" fill="none" xmlns="http://www.w3.org/2000/svg">
<path d="M1.33333 15.5C1.09722 15.5 0.899306 15.4201 0.739583 15.2604C0.579861 15.1007 0.5 14.9028 0.5 14.6667V12.6458C0.5 12.4236 0.541667 12.2118 0.625 12.0104C0.708333 11.809 0.826389 11.6319 0.979167 11.4792L11.5 0.979167C11.6667 0.826389 11.8507 0.708333 12.0521 0.625C12.2535 0.541667 12.4653 0.5 12.6875 0.5C12.9097 0.5 13.125 0.541667 13.3333 0.625C13.5417 0.708333 13.7222 0.833333 13.875 1L15.0208 2.16667C15.1875 2.31944 15.309 2.5 15.3854 2.70833C15.4618 2.91667 15.5 3.125 15.5 3.33333C15.5 3.55556 15.4618 3.76736 15.3854 3.96875C15.309 4.17014 15.1875 4.35417 15.0208 4.52083L4.52083 15.0208C4.36806 15.1736 4.19097 15.2917 3.98958 15.375C3.78819 15.4583 3.57639 15.5 3.35417 15.5H1.33333ZM12.6667 4.5L13.8333 3.33333L12.6667 2.16667L11.5 3.33333L12.6667 4.5Z" fill="#FFCC00"/>
</svg>
