<svg width="24" height="24" viewBox="0 0 24 24" fill="none" xmlns="http://www.w3.org/2000/svg">
<mask id="mask0_70_868" style="mask-type:alpha" maskUnits="userSpaceOnUse" x="0" y="0" width="24" height="24">
<rect width="24" height="24" fill="#D9D9D9"/>
</mask>
<g mask="url(#mask0_70_868)">
<path d="M9 14.25C8.65 14.25 8.35417 14.1292 8.1125 13.8875C7.87083 13.6458 7.75 13.35 7.75 13C7.75 12.65 7.87083 12.3542 8.1125 12.1125C8.35417 11.8708 8.65 11.75 9 11.75C9.35 11.75 9.64583 11.8708 9.8875 12.1125C10.1292 12.3542 10.25 12.65 10.25 13C10.25 13.35 10.1292 13.6458 9.8875 13.8875C9.64583 14.1292 9.35 14.25 9 14.25ZM15 14.25C14.65 14.25 14.3542 14.1292 14.1125 13.8875C13.8708 13.6458 13.75 13.35 13.75 13C13.75 12.65 13.8708 12.3542 14.1125 12.1125C14.3542 11.8708 14.65 11.75 15 11.75C15.35 11.75 15.6458 11.8708 15.8875 12.1125C16.1292 12.3542 16.25 12.65 16.25 13C16.25 13.35 16.1292 13.6458 15.8875 13.8875C15.6458 14.1292 15.35 14.25 15 14.25ZM12 20C14.2333 20 16.125 19.225 17.675 17.675C19.225 16.125 20 14.2333 20 12C20 11.6 19.975 11.2125 19.925 10.8375C19.875 10.4625 19.7833 10.1 19.65 9.75C19.3 9.83333 18.95 9.89583 18.6 9.9375C18.25 9.97917 17.8833 10 17.5 10C15.9833 10 14.55 9.675 13.2 9.025C11.85 8.375 10.7 7.46667 9.75 6.3C9.21667 7.6 8.45417 8.72917 7.4625 9.6875C6.47083 10.6458 5.31667 11.3667 4 11.85V12C4 14.2333 4.775 16.125 6.325 17.675C7.875 19.225 9.76667 20 12 20ZM12 22C10.6167 22 9.31667 21.7375 8.1 21.2125C6.88333 20.6875 5.825 19.975 4.925 19.075C4.025 18.175 3.3125 17.1167 2.7875 15.9C2.2625 14.6833 2 13.3833 2 12C2 10.6167 2.2625 9.31667 2.7875 8.1C3.3125 6.88333 4.025 5.825 4.925 4.925C5.825 4.025 6.88333 3.3125 8.1 2.7875C9.31667 2.2625 10.6167 2 12 2C13.3833 2 14.6833 2.2625 15.9 2.7875C17.1167 3.3125 18.175 4.025 19.075 4.925C19.975 5.825 20.6875 6.88333 21.2125 8.1C21.7375 9.31667 22 10.6167 22 12C22 13.3833 21.7375 14.6833 21.2125 15.9C20.6875 17.1167 19.975 18.175 19.075 19.075C18.175 19.975 17.1167 20.6875 15.9 21.2125C14.6833 21.7375 13.3833 22 12 22Z" fill="#FFCC00"/>
</g>
</svg>
