<svg width="194" height="194" viewBox="-10 0 174 194" fill="none" xmlns="http://www.w3.org/2000/svg">
<g clip-path="url(#clip0_17_85)">
<g clip-path="url(#clip1_17_85)">
<path d="M77.48 7.01V31.71C77.48 35.58 74.28 38.72 70.33 38.72L7.15 39.07C3.2 39.07 0 35.93 0 32.06V6.29C0 4.54 0.79 2.95 2.03 1.85C3.09 0.91 4.47 0.35 6.02 0.35L70.32 0C74.27 0 77.47 3.14 77.47 7.01H77.48Z" fill="#FFE787"/>
<path d="M154.92 116.54C154.92 159.32 120.24 194 77.46 194C34.68 194 0 159.32 0 116.54C0 73.76 34.68 39.08 77.46 39.08C120.24 39.08 154.92 73.76 154.92 116.54ZM84.92 18.58H29.14C24.52 18.58 20.77 22.34 20.77 26.97V51.39C20.77 56.02 24.52 59.78 29.14 59.78H84.92C89.54 59.78 93.29 56.02 93.29 51.39V26.97C93.29 22.34 89.54 18.58 84.92 18.58Z" fill="#FFCC00"/>
<path d="M55.4758 116.54C57.0158 126.97 66.0058 134.97 76.8558 134.97C87.7058 134.97 96.6958 126.97 98.2358 116.54H55.4658H55.4758Z" fill="#18202E"/>
<path d="M64.2056 94.4054C66.8765 87.067 65.3773 79.7844 60.8571 78.1391C56.3368 76.4939 50.5071 81.109 47.8362 88.4474C45.1652 95.7857 46.6644 103.068 51.1847 104.714C55.705 106.359 61.5347 101.744 64.2056 94.4054Z" fill="#18202E"/>
<path d="M103.326 104.719C107.847 103.074 109.346 95.791 106.675 88.4527C104.004 81.1143 98.1743 76.4992 93.654 78.1444C89.1337 79.7897 87.6345 87.0723 90.3054 94.4107C92.9763 101.749 98.806 106.364 103.326 104.719Z" fill="#18202E"/>
</g>
</g>
<defs>
<clipPath id="clip0_17_85">
<rect width="409.66" height="194" fill="white"/>
</clipPath>
<clipPath id="clip1_17_85">
<rect width="154.92" height="194" fill="white"/>
</clipPath>
</defs>
</svg>
