<svg width="12" height="13" viewBox="0 0 12 13" fill="none" xmlns="http://www.w3.org/2000/svg">
<path d="M5.7083 8.82505L1.8083 12.7C1.62497 12.8834 1.3958 12.9792 1.1208 12.9875C0.845801 12.9959 0.608301 12.9 0.408301 12.7C0.224967 12.5167 0.133301 12.2834 0.133301 12C0.133301 11.7167 0.224967 11.4834 0.408301 11.3L5.0083 6.70005C5.1083 6.60005 5.21663 6.52922 5.3333 6.48755C5.44997 6.44588 5.57497 6.42505 5.7083 6.42505C5.84163 6.42505 5.96663 6.44588 6.0833 6.48755C6.19997 6.52922 6.3083 6.60005 6.4083 6.70005L11.0083 11.3C11.1916 11.4834 11.2875 11.7125 11.2958 11.9875C11.3041 12.2625 11.2083 12.5 11.0083 12.7C10.825 12.8834 10.5916 12.975 10.3083 12.975C10.025 12.975 9.79163 12.8834 9.6083 12.7L5.7083 8.82505ZM5.7083 2.82505L1.8083 6.70005C1.62497 6.88338 1.3958 6.97922 1.1208 6.98755C0.845801 6.99588 0.608301 6.90005 0.408301 6.70005C0.224967 6.51672 0.133301 6.28338 0.133301 6.00005C0.133301 5.71672 0.224967 5.48338 0.408301 5.30005L5.0083 0.700049C5.1083 0.600049 5.21663 0.529215 5.3333 0.487549C5.44997 0.445882 5.57497 0.425049 5.7083 0.425049C5.84163 0.425049 5.96663 0.445882 6.0833 0.487549C6.19997 0.529215 6.3083 0.600049 6.4083 0.700049L11.0083 5.30005C11.1916 5.48338 11.2875 5.71255 11.2958 5.98755C11.3041 6.26255 11.2083 6.50005 11.0083 6.70005C10.825 6.88338 10.5916 6.97505 10.3083 6.97505C10.025 6.97505 9.79163 6.88338 9.6083 6.70005L5.7083 2.82505Z" fill="#EDEDED"/>
</svg>
