<svg width="24" height="24" viewBox="0 0 24 24" fill="none" xmlns="http://www.w3.org/2000/svg">
<g clip-path="url(#clip0_142_1258)">
<mask id="mask0_142_1258" style="mask-type:alpha" maskUnits="userSpaceOnUse" x="0" y="-4" width="32" height="32">
<rect y="-4" width="32" height="32" fill="#D9D9D9"/>
</mask>
<g mask="url(#mask0_142_1258)">
<path d="M16 14.4334L10.8 19.6001C10.5555 19.8445 10.25 19.9723 9.88332 19.9834C9.51665 19.9945 9.19998 19.8667 8.93332 19.6001C8.68887 19.3556 8.56665 19.0445 8.56665 18.6667C8.56665 18.289 8.68887 17.9778 8.93332 17.7334L15.0666 11.6001C15.2 11.4667 15.3444 11.3723 15.5 11.3167C15.6555 11.2612 15.8222 11.2334 16 11.2334C16.1778 11.2334 16.3444 11.2612 16.5 11.3167C16.6555 11.3723 16.8 11.4667 16.9333 11.6001L23.0666 17.7334C23.3111 17.9778 23.4389 18.2834 23.45 18.6501C23.4611 19.0167 23.3333 19.3334 23.0666 19.6001C22.8222 19.8445 22.5111 19.9667 22.1333 19.9667C21.7555 19.9667 21.4444 19.8445 21.2 19.6001L16 14.4334ZM16 6.4334L10.8 11.6001C10.5555 11.8445 10.25 11.9723 9.88332 11.9834C9.51665 11.9945 9.19998 11.8667 8.93332 11.6001C8.68887 11.3556 8.56665 11.0445 8.56665 10.6667C8.56665 10.289 8.68887 9.97784 8.93332 9.7334L15.0666 3.60007C15.2 3.46673 15.3444 3.37229 15.5 3.31673C15.6555 3.26118 15.8222 3.2334 16 3.2334C16.1778 3.2334 16.3444 3.26118 16.5 3.31673C16.6555 3.37229 16.8 3.46673 16.9333 3.60007L23.0666 9.7334C23.3111 9.97784 23.4389 10.2834 23.45 10.6501C23.4611 11.0167 23.3333 11.3334 23.0666 11.6001C22.8222 11.8445 22.5111 11.9667 22.1333 11.9667C21.7555 11.9667 21.4444 11.8445 21.2 11.6001L16 6.4334Z" fill="#FF0004"/>
</g>
</g>
<defs>
<clipPath id="clip0_142_1258">
<rect width="24" height="24" rx="12" fill="white"/>
</clipPath>
</defs>
</svg>
