<svg width="529" height="665" viewBox="0 0 529 665" fill="none" xmlns="http://www.w3.org/2000/svg">
<g opacity="0.1" clip-path="url(#clip0_70_875)">
<path d="M315.581 28.5459V129.128C315.581 144.888 302.548 157.674 286.459 157.674L29.1224 159.099C13.0338 159.099 0 146.313 0 130.554V25.6139C0 18.4876 3.21773 12.0129 8.26833 7.53351C12.5858 3.70567 18.2066 1.42526 24.5199 1.42526L286.418 0C302.507 0 315.541 12.7866 315.541 28.5459H315.581Z" fill="#FFE787"/>
<path d="M631 474.57C631 648.777 489.746 790 315.5 790C141.254 790 0 648.777 0 474.57C0 300.363 141.254 159.14 315.5 159.14C489.746 159.14 631 300.363 631 474.57ZM345.885 75.6608H118.689C99.8717 75.6608 84.5977 90.9722 84.5977 109.826V209.269C84.5977 228.123 99.8717 243.434 118.689 243.434H345.885C364.703 243.434 379.977 228.123 379.977 209.269V109.826C379.977 90.9722 364.703 75.6608 345.885 75.6608Z" fill="#FFCC00"/>
<path d="M204.346 474.57C210.618 517.043 247.235 549.62 291.428 549.62C335.621 549.62 372.238 517.043 378.51 474.57H204.305H204.346Z" fill="#18202E"/>
<path d="M198.52 384.434C209.399 354.551 203.293 324.895 184.881 318.195C166.47 311.496 142.725 330.289 131.846 360.172C120.968 390.055 127.074 419.711 145.485 426.411C163.897 433.111 187.641 414.317 198.52 384.434Z" fill="#18202E"/>
<path d="M357.861 426.432C376.273 419.733 382.379 390.077 371.5 360.194C360.621 330.311 336.877 311.517 318.465 318.217C300.054 324.916 293.948 354.573 304.826 384.455C315.705 414.338 339.45 433.132 357.861 426.432Z" fill="#18202E"/>
</g>
<defs>
<clipPath id="clip0_70_875">
<rect width="529" height="665" fill="white"/>
</clipPath>
</defs>
</svg>
