<svg width="85" height="40" viewBox="0 0 85 40" fill="none" xmlns="http://www.w3.org/2000/svg">
<g clip-path="url(#clip0_67_494)">
<path d="M42.4824 14.7155C43.4865 16.2536 44.4824 17.8 45.4597 19.3567C47.0804 19.1052 48.0969 18.9629 49.3999 18.8598C49.8061 18.6289 50.2268 18.4289 50.6618 18.266C49.2391 16.0515 47.7835 13.8598 46.2989 11.6845C47.8556 9.24124 49.4185 6.80207 51.0432 4.40619C48.9422 4.53609 47.9216 4.70103 45.8391 5.0598C44.7298 6.89897 43.6164 8.73402 42.4948 10.567C42.4989 8.93402 42.5051 7.3031 42.5092 5.67011C40.567 6.03299 39.5793 6.22475 37.4948 6.50516C37.4907 10.9608 37.4865 15.4186 37.4824 19.8742C39.1463 19.565 40.8061 19.2454 42.4701 18.934C42.4742 17.5278 42.4783 16.1196 42.4824 14.7134V14.7155Z" fill="#FFCC00"/>
<path d="M56.8783 17.5864C56.9278 17.9473 56.9629 18.2029 57.0206 18.6277H61.0577C60.9381 15.8091 61.7794 12.2215 60.3938 9.82149C58.8928 7.21942 53.9732 6.87922 51.7423 9.09159C51.5773 10.8545 51.4948 11.7349 51.3319 13.4998C52.666 12.0875 55.0598 10.9823 56.8412 12.2772V12.3308C55.0536 12.2668 52.6845 12.972 51.6144 14.44C50.8845 15.4421 50.9361 16.9246 51.6886 17.873C52.4227 17.7019 53.1794 17.6318 53.9443 17.6854V18.9225C55.0907 18.9844 56.1608 18.4648 56.8763 17.5906L56.8783 17.5864ZM56.8433 14.3122V15.1266C56.1608 17.2215 53.8742 14.6277 56.8433 14.3122Z" fill="#FFCC00"/>
<path d="M67.3298 12.6247C67.5628 11.932 68.5793 11.8887 68.536 12.934V18.7113C70.4824 18.7113 71.4597 18.7361 73.4144 18.9175C73.3463 15.9134 74.1422 12.0722 72.9793 9.5897C71.7814 7.033 68.6391 7.52578 67.1979 9.49691C67.1587 9.00413 67.1133 8.51547 67.0535 8.02681H62.4226V18.7113H67.2906C67.2968 16.6949 67.3566 14.6577 67.3298 12.6247Z" fill="#FFCC00"/>
<path d="M65.8207 27.0804C66.0537 26.3876 67.0702 26.3443 67.0269 27.3897V33.167C68.9732 33.167 69.9506 33.1917 71.9052 33.3732C71.8372 30.3691 72.633 26.5278 71.4702 24.0454C70.2722 21.4887 67.1299 21.9814 65.6887 23.9526C65.6495 23.4598 65.6042 22.9711 65.5444 22.4825H60.9135V33.167H65.7815C65.7877 31.1505 65.8475 29.1134 65.8207 27.0804Z" fill="#FFCC00"/>
<path d="M45.4351 25.3753C44.3732 23.5732 43.3093 21.7608 42.1608 20.0103C40.4268 20.334 39.5464 20.5134 37.7216 20.8598C37.7113 25.6454 37.6722 30.4309 37.6412 35.2165C39.5134 34.8268 40.4619 34.6392 42.3629 34.3196C42.3979 32.2557 42.433 30.1897 42.466 28.1258C43.5938 29.9918 44.1546 30.9381 45.2928 32.8598C46.2639 30.932 47.2289 29 48.1897 27.068C48.1753 29.2309 48.1608 31.3938 48.1464 33.5567C50.0577 33.3856 51.0144 33.332 52.9134 33.334V18.7959C49.2247 18.7155 46.5732 22.2309 45.433 25.3753H45.4351Z" fill="#FFCC00"/>
<path d="M58.7671 25.7485H55.1361C54.7939 25.7485 54.5176 25.9897 54.5176 26.2887V32.6866C54.5176 32.9835 54.7939 33.2248 55.1361 33.2248H58.7671C59.1093 33.2248 59.3856 32.9835 59.3856 32.6866V26.2887C59.3856 25.9897 59.1093 25.7485 58.7671 25.7485Z" fill="#FFCC00"/>
<path d="M58.8763 20.9794C58.8392 20.6742 58.5814 20.4351 58.266 20.4351H54.635C54.2928 20.4351 54.0165 20.7113 54.0165 21.0536V22.5794C54.0165 22.833 54.167 23.0516 54.3835 23.1485C54.4598 23.1835 54.5443 23.2041 54.635 23.2041H55.0185V22.4371C55.0185 22.0928 55.2948 21.8144 55.6371 21.8144H58.8845V21.0516C58.8845 21.0268 58.8804 21.0021 58.8763 20.9773V20.9794Z" fill="#FFE787"/>
<path d="M79.7361 19.9031C79.7216 21.6206 79.7072 22.4742 79.6701 24.1815C79.6742 23.9567 78.8948 23.501 78.7196 23.4C78.3546 23.1897 77.9526 23.0474 77.534 22.9897C76.7402 22.8804 75.901 23.0825 75.2268 23.5072C73.7773 24.4186 72.8082 26.1711 72.6144 27.8454C72.4247 29.499 72.9526 31.2351 74.035 32.5031C75.0515 33.6949 76.9154 34.6557 78.4845 34.0969C78.6825 34.0268 79.7691 33.5402 79.7402 33.2969C79.7876 33.7072 79.8103 33.9114 79.8577 34.3217C81.5917 34.6206 82.4783 34.798 84.3567 35.1918C84.3979 30.4103 84.4474 25.6309 84.468 20.8495C82.5876 20.4516 81.6392 20.2516 79.7381 19.9031H79.7361ZM77.5608 29.6495C76.6804 27.0454 79.9175 25.9093 79.5649 28.8536C79.7752 30.3567 78.1258 31.3196 77.5608 29.6495Z" fill="#FFCC00"/>
<path d="M59.5072 21.8639C59.433 21.833 59.3526 21.8165 59.268 21.8165H55.6371C55.2948 21.8165 55.0186 22.0948 55.0186 22.4392V23.9732C55.0186 24.3196 55.2948 24.6 55.6371 24.6H59.268C59.6103 24.6 59.8866 24.3196 59.8866 23.9732V22.4392C59.8866 22.1814 59.7299 21.9588 59.5072 21.866V21.8639Z" fill="#FFCC00"/>
<g clip-path="url(#clip1_67_494)">
<path d="M15.9753 1.44536V6.53814C15.9753 7.33608 15.3155 7.98351 14.501 7.98351L1.47423 8.05567C0.659794 8.05567 0 7.40825 0 6.61031V1.29691C0 0.936082 0.162887 0.608247 0.418557 0.381443C0.637113 0.187629 0.921649 0.0721649 1.24124 0.0721649L14.499 0C15.3134 0 15.9732 0.647423 15.9732 1.44536H15.9753Z" fill="#FFE787"/>
<path d="M31.9423 24.0289C31.9423 32.8495 24.7918 40 15.9711 40C7.15052 40 0 32.8495 0 24.0289C0 15.2083 7.15052 8.05774 15.9711 8.05774C24.7918 8.05774 31.9423 15.2083 31.9423 24.0289ZM17.5093 3.83093H6.00825C5.05567 3.83093 4.28247 4.60619 4.28247 5.56083V10.5959C4.28247 11.5505 5.05567 12.3258 6.00825 12.3258H17.5093C18.4619 12.3258 19.2351 11.5505 19.2351 10.5959V5.56083C19.2351 4.60619 18.4619 3.83093 17.5093 3.83093Z" fill="#FFCC00"/>
<path d="M10.3443 24.0289C10.6619 26.1794 12.5155 27.8289 14.7526 27.8289C16.9897 27.8289 18.8433 26.1794 19.1608 24.0289H10.3423H10.3443Z" fill="#18202E"/>
<path d="M10.0494 19.465C10.6001 17.952 10.291 16.4504 9.35899 16.1112C8.42697 15.7719 7.22498 16.7235 6.67427 18.2366C6.12356 19.7496 6.43268 21.2512 7.3647 21.5904C8.29672 21.9297 9.4987 20.9781 10.0494 19.465Z" fill="#18202E"/>
<path d="M18.1155 21.5915C19.0475 21.2523 19.3566 19.7507 18.8059 18.2376C18.2552 16.7246 17.0532 15.773 16.1212 16.1122C15.1891 16.4515 14.88 17.953 15.4307 19.4661C15.9815 20.9792 17.1834 21.9307 18.1155 21.5915Z" fill="#18202E"/>
</g>
</g>
<defs>
<clipPath id="clip0_67_494">
<rect width="84.466" height="40" fill="white"/>
</clipPath>
<clipPath id="clip1_67_494">
<rect width="31.9423" height="40" fill="white"/>
</clipPath>
</defs>
</svg>
