<svg width="12" height="13" viewBox="0 0 12 13" fill="none" xmlns="http://www.w3.org/2000/svg">
<path d="M5.70836 10.175L9.60836 6.29996C9.79169 6.11663 10.0209 6.0208 10.2959 6.01246C10.5709 6.00413 10.8084 6.09996 11.0084 6.29996C11.1917 6.4833 11.2834 6.71663 11.2834 6.99996C11.2834 7.2833 11.1917 7.51663 11.0084 7.69996L6.40836 12.3C6.30836 12.4 6.20003 12.4708 6.08336 12.5125C5.96669 12.5541 5.84169 12.575 5.70836 12.575C5.57503 12.575 5.45003 12.5541 5.33336 12.5125C5.21669 12.4708 5.10836 12.4 5.00836 12.3L0.408361 7.69996C0.225028 7.51663 0.129195 7.28746 0.120861 7.01246C0.112528 6.73746 0.208361 6.49996 0.408361 6.29996C0.591695 6.11663 0.825028 6.02496 1.10836 6.02496C1.39169 6.02496 1.62503 6.11663 1.80836 6.29996L5.70836 10.175ZM5.70836 4.17496L9.60836 0.299963C9.79169 0.11663 10.0209 0.0207962 10.2959 0.0124629C10.5709 0.00412956 10.8084 0.0999629 11.0084 0.299963C11.1917 0.483296 11.2834 0.71663 11.2834 0.999963C11.2834 1.2833 11.1917 1.51663 11.0084 1.69996L6.40836 6.29996C6.30836 6.39996 6.20003 6.4708 6.08336 6.51246C5.96669 6.55413 5.84169 6.57496 5.70836 6.57496C5.57503 6.57496 5.45003 6.55413 5.33336 6.51246C5.21669 6.4708 5.10836 6.39996 5.00836 6.29996L0.408361 1.69996C0.225028 1.51663 0.129195 1.28746 0.120861 1.01246C0.112528 0.737463 0.208361 0.499963 0.408361 0.299963C0.591695 0.11663 0.825028 0.0249629 1.10836 0.0249629C1.39169 0.0249629 1.62503 0.11663 1.80836 0.299963L5.70836 4.17496Z" fill="#EDEDED"/>
</svg>
