<svg width="8" height="9" viewBox="0 0 8 9" fill="none" xmlns="http://www.w3.org/2000/svg">
<path d="M3.99999 6.78315L6.59999 4.19981C6.72221 4.07759 6.87499 4.0137 7.05832 4.00815C7.24166 4.00259 7.39999 4.06648 7.53332 4.19981C7.65555 4.32203 7.71666 4.47759 7.71666 4.66648C7.71666 4.85537 7.65555 5.01092 7.53332 5.13315L4.46666 8.19981C4.39999 8.26648 4.32777 8.3137 4.24999 8.34148C4.17221 8.36926 4.08888 8.38315 3.99999 8.38315C3.9111 8.38315 3.82777 8.36926 3.74999 8.34148C3.67221 8.3137 3.59999 8.26648 3.53332 8.19981L0.466658 5.13315C0.344436 5.01092 0.280547 4.85815 0.274992 4.67481C0.269436 4.49148 0.333325 4.33315 0.466658 4.19981C0.58888 4.07759 0.744436 4.01648 0.933325 4.01648C1.12221 4.01648 1.27777 4.07759 1.39999 4.19981L3.99999 6.78315ZM3.99999 2.78315L6.59999 0.199813C6.72221 0.0775903 6.87499 0.0137014 7.05832 0.00814583C7.24166 0.00259028 7.39999 0.0664792 7.53332 0.199813C7.65555 0.322035 7.71666 0.47759 7.71666 0.666479C7.71666 0.855368 7.65555 1.01092 7.53332 1.13315L4.46666 4.19981C4.39999 4.26648 4.32777 4.3137 4.24999 4.34148C4.17221 4.36926 4.08888 4.38315 3.99999 4.38315C3.9111 4.38315 3.82777 4.36926 3.74999 4.34148C3.67221 4.3137 3.59999 4.26648 3.53332 4.19981L0.466658 1.13315C0.344436 1.01092 0.280547 0.858146 0.274992 0.674812C0.269436 0.491479 0.333325 0.333146 0.466658 0.199813C0.58888 0.0775903 0.744436 0.0164792 0.933325 0.0164792C1.12221 0.0164792 1.27777 0.0775903 1.39999 0.199813L3.99999 2.78315Z" fill="#006FFF"/>
</svg>
