<svg width="12" height="7" viewBox="0 0 12 7" fill="none" xmlns="http://www.w3.org/2000/svg">
<path d="M1.04625 6.975C0.755625 6.975 0.508594 6.87328 0.305156 6.66984C0.101719 6.46641 0 6.21938 0 5.92875C0 5.63812 0.101719 5.39109 0.305156 5.18766C0.508594 4.98422 0.755625 4.8825 1.04625 4.8825H10.1137C10.4044 4.8825 10.6514 4.98422 10.8548 5.18766C11.0583 5.39109 11.16 5.63812 11.16 5.92875C11.16 6.21938 11.0583 6.46641 10.8548 6.66984C10.6514 6.87328 10.4044 6.975 10.1137 6.975H1.04625ZM1.04625 2.0925C0.755625 2.0925 0.508594 1.99078 0.305156 1.78734C0.101719 1.58391 0 1.33687 0 1.04625C0 0.755625 0.101719 0.508594 0.305156 0.305156C0.508594 0.101719 0.755625 0 1.04625 0H10.1137C10.4044 0 10.6514 0.101719 10.8548 0.305156C11.0583 0.508594 11.16 0.755625 11.16 1.04625C11.16 1.33687 11.0583 1.58391 10.8548 1.78734C10.6514 1.99078 10.4044 2.0925 10.1137 2.0925H1.04625Z" fill="#EDEDED"/>
</svg>
