<svg width="8" height="5" viewBox="0 0 8 5" fill="none" xmlns="http://www.w3.org/2000/svg">
<path d="M0.6975 4.65C0.50375 4.65 0.339063 4.58219 0.203438 4.44656C0.0678125 4.31094 0 4.14625 0 3.9525C0 3.75875 0.0678125 3.59406 0.203438 3.45844C0.339063 3.32281 0.50375 3.255 0.6975 3.255H6.7425C6.93625 3.255 7.10094 3.32281 7.23656 3.45844C7.37219 3.59406 7.44 3.75875 7.44 3.9525C7.44 4.14625 7.37219 4.31094 7.23656 4.44656C7.10094 4.58219 6.93625 4.65 6.7425 4.65H0.6975ZM0.6975 1.395C0.50375 1.395 0.339063 1.32719 0.203438 1.19156C0.0678125 1.05594 0 0.89125 0 0.6975C0 0.50375 0.0678125 0.339063 0.203438 0.203438C0.339063 0.0678125 0.50375 0 0.6975 0H6.7425C6.93625 0 7.10094 0.0678125 7.23656 0.203438C7.37219 0.339063 7.44 0.50375 7.44 0.6975C7.44 0.89125 7.37219 1.05594 7.23656 1.19156C7.10094 1.32719 6.93625 1.395 6.7425 1.395H0.6975Z" fill="#FF4C00"/>
</svg>
