<svg width="22" height="20" viewBox="0 0 22 20" fill="none" xmlns="http://www.w3.org/2000/svg">
<path d="M18.0999 18.9L14.5999 15.45C14.0166 15.6333 13.4249 15.7708 12.8249 15.8625C12.2249 15.9541 11.6166 16 10.9999 16C8.76657 16 6.7249 15.4 4.8749 14.2C3.0249 13 1.5749 11.4166 0.524902 9.44998C0.441569 9.29998 0.379069 9.14581 0.337402 8.98748C0.295736 8.82914 0.274902 8.66664 0.274902 8.49998C0.274902 8.33331 0.295736 8.17081 0.337402 8.01248C0.379069 7.85414 0.441569 7.69998 0.524902 7.54998C0.891569 6.89998 1.28324 6.26664 1.6999 5.64998C2.11657 5.03331 2.5999 4.48331 3.1499 3.99998L1.0749 1.89998C0.891569 1.71664 0.799902 1.48748 0.799902 1.21248C0.799902 0.937476 0.899902 0.699976 1.0999 0.499976C1.28324 0.316642 1.51657 0.224976 1.7999 0.224976C2.08324 0.224976 2.31657 0.316642 2.4999 0.499976L19.4999 17.5C19.6832 17.6833 19.7791 17.9125 19.7874 18.1875C19.7957 18.4625 19.6999 18.7 19.4999 18.9C19.3166 19.0833 19.0832 19.175 18.7999 19.175C18.5166 19.175 18.2832 19.0833 18.0999 18.9ZM10.9999 13C11.1832 13 11.3582 12.9916 11.5249 12.975C11.6916 12.9583 11.8582 12.925 12.0249 12.875L6.6249 7.47498C6.5749 7.64164 6.54157 7.80831 6.5249 7.97498C6.50824 8.14164 6.4999 8.31664 6.4999 8.49998C6.4999 9.74998 6.9374 10.8125 7.8124 11.6875C8.6874 12.5625 9.7499 13 10.9999 13ZM10.9999 0.999976C13.2332 0.999976 15.2791 1.60414 17.1374 2.81248C18.9957 4.02081 20.4499 5.60831 21.4999 7.57498C21.5832 7.70831 21.6457 7.85414 21.6874 8.01248C21.7291 8.17081 21.7499 8.33331 21.7499 8.49998C21.7499 8.66664 21.7332 8.82914 21.6999 8.98748C21.6666 9.14581 21.6082 9.29164 21.5249 9.42498C21.2082 10.0416 20.8541 10.625 20.4624 11.175C20.0707 11.725 19.6332 12.2416 19.1499 12.725C18.9166 12.9583 18.6416 13.0666 18.3249 13.05C18.0082 13.0333 17.7332 12.9083 17.4999 12.675L15.4999 10.675C15.3832 10.5583 15.3082 10.4208 15.2749 10.2625C15.2416 10.1041 15.2499 9.94164 15.2999 9.77498C15.3666 9.55831 15.4166 9.34998 15.4499 9.14998C15.4832 8.94998 15.4999 8.73331 15.4999 8.49998C15.4999 7.24998 15.0624 6.18748 14.1874 5.31248C13.3124 4.43748 12.2499 3.99998 10.9999 3.99998C10.7666 3.99998 10.5499 4.01664 10.3499 4.04998C10.1499 4.08331 9.94157 4.13331 9.7249 4.19998C9.55824 4.24998 9.39157 4.25831 9.2249 4.22498C9.05824 4.19164 8.91657 4.11664 8.7999 3.99998L7.9749 3.17498C7.65824 2.85831 7.55407 2.49164 7.6624 2.07498C7.77074 1.65831 8.03324 1.39164 8.4499 1.27498C8.86657 1.19164 9.2874 1.12498 9.7124 1.07498C10.1374 1.02498 10.5666 0.999976 10.9999 0.999976ZM12.9749 6.64998C13.1582 6.86664 13.3124 7.10414 13.4374 7.36248C13.5624 7.62081 13.6416 7.89164 13.6749 8.17498C13.6916 8.30831 13.6416 8.39998 13.5249 8.44998C13.4082 8.49998 13.2999 8.47498 13.1999 8.37498L11.1499 6.32498C11.0499 6.22498 11.0291 6.11664 11.0874 5.99998C11.1457 5.88331 11.2416 5.82498 11.3749 5.82498C11.6916 5.85831 11.9832 5.94581 12.2499 6.08748C12.5166 6.22914 12.7582 6.41664 12.9749 6.64998Z" fill="#FFE787"/>
</svg>
