<svg width="16" height="18" viewBox="0 0 16 18" fill="none" xmlns="http://www.w3.org/2000/svg">
<path d="M7.02082 17.3334C6.64582 17.3334 6.3229 17.2084 6.05207 16.9584C5.78123 16.7084 5.61804 16.4029 5.56248 16.0417L5.37498 14.6667C5.19443 14.5973 5.02429 14.514 4.86457 14.4167C4.70485 14.3195 4.5486 14.2154 4.39582 14.1042L3.10415 14.6459C2.75693 14.7987 2.40971 14.8126 2.06248 14.6876C1.71526 14.5626 1.44443 14.3404 1.24998 14.0209L0.270817 12.3126C0.0763726 11.9931 0.0208171 11.6529 0.10415 11.2917C0.187484 10.9306 0.374984 10.632 0.66665 10.3959L1.77082 9.56258C1.75693 9.46536 1.74998 9.37161 1.74998 9.28133V8.71883C1.74998 8.62855 1.75693 8.5348 1.77082 8.43758L0.66665 7.60425C0.374984 7.36814 0.187484 7.06953 0.10415 6.70841C0.0208171 6.3473 0.0763726 6.00703 0.270817 5.68758L1.24998 3.97925C1.44443 3.6598 1.71526 3.43758 2.06248 3.31258C2.40971 3.18758 2.75693 3.20147 3.10415 3.35425L4.39582 3.89591C4.5486 3.7848 4.70832 3.68064 4.87498 3.58341C5.04165 3.48619 5.20832 3.40286 5.37498 3.33341L5.56248 1.95841C5.61804 1.5973 5.78123 1.29175 6.05207 1.04175C6.3229 0.791748 6.64582 0.666748 7.02082 0.666748H8.97915C9.35415 0.666748 9.67707 0.791748 9.9479 1.04175C10.2187 1.29175 10.3819 1.5973 10.4375 1.95841L10.625 3.33341C10.8055 3.40286 10.9757 3.48619 11.1354 3.58341C11.2951 3.68064 11.4514 3.7848 11.6042 3.89591L12.8958 3.35425C13.243 3.20147 13.5903 3.18758 13.9375 3.31258C14.2847 3.43758 14.5555 3.6598 14.75 3.97925L15.7292 5.68758C15.9236 6.00703 15.9792 6.3473 15.8958 6.70841C15.8125 7.06953 15.625 7.36814 15.3333 7.60425L14.2292 8.43758C14.243 8.5348 14.25 8.62855 14.25 8.71883V9.28133C14.25 9.37161 14.2361 9.46536 14.2083 9.56258L15.3125 10.3959C15.6042 10.632 15.7917 10.9306 15.875 11.2917C15.9583 11.6529 15.9028 11.9931 15.7083 12.3126L14.7083 14.0209C14.5139 14.3404 14.243 14.5626 13.8958 14.6876C13.5486 14.8126 13.2014 14.7987 12.8542 14.6459L11.6042 14.1042C11.4514 14.2154 11.2917 14.3195 11.125 14.4167C10.9583 14.514 10.7917 14.5973 10.625 14.6667L10.4375 16.0417C10.3819 16.4029 10.2187 16.7084 9.9479 16.9584C9.67707 17.2084 9.35415 17.3334 8.97915 17.3334H7.02082ZM8.04165 11.9167C8.84721 11.9167 9.53471 11.632 10.1042 11.0626C10.6736 10.4931 10.9583 9.80564 10.9583 9.00008C10.9583 8.19453 10.6736 7.50703 10.1042 6.93758C9.53471 6.36814 8.84721 6.08341 8.04165 6.08341C7.22221 6.08341 6.53123 6.36814 5.96873 6.93758C5.40623 7.50703 5.12498 8.19453 5.12498 9.00008C5.12498 9.80564 5.40623 10.4931 5.96873 11.0626C6.53123 11.632 7.22221 11.9167 8.04165 11.9167Z" fill="#FFCC00"/>
</svg>
