<svg width="16" height="14" viewBox="0 0 16 14" fill="none" xmlns="http://www.w3.org/2000/svg">
<path d="M1.99992 13.6666C1.54159 13.6666 1.14922 13.5035 0.822835 13.1771C0.496446 12.8507 0.333252 12.4583 0.333252 12C0.333252 11.5416 0.496446 11.1493 0.822835 10.8229C1.14922 10.4965 1.54159 10.3333 1.99992 10.3333C2.45825 10.3333 2.85061 10.4965 3.177 10.8229C3.50339 11.1493 3.66659 11.5416 3.66659 12C3.66659 12.4583 3.50339 12.8507 3.177 13.1771C2.85061 13.5035 2.45825 13.6666 1.99992 13.6666ZM1.99992 8.66665C1.54159 8.66665 1.14922 8.50345 0.822835 8.17706C0.496446 7.85067 0.333252 7.45831 0.333252 6.99998C0.333252 6.54165 0.496446 6.14929 0.822835 5.8229C1.14922 5.49651 1.54159 5.33331 1.99992 5.33331C2.45825 5.33331 2.85061 5.49651 3.177 5.8229C3.50339 6.14929 3.66659 6.54165 3.66659 6.99998C3.66659 7.45831 3.50339 7.85067 3.177 8.17706C2.85061 8.50345 2.45825 8.66665 1.99992 8.66665ZM1.99992 3.66665C1.54159 3.66665 1.14922 3.50345 0.822835 3.17706C0.496446 2.85067 0.333252 2.45831 0.333252 1.99998C0.333252 1.54165 0.496446 1.14929 0.822835 0.822896C1.14922 0.496507 1.54159 0.333313 1.99992 0.333313C2.45825 0.333313 2.85061 0.496507 3.177 0.822896C3.50339 1.14929 3.66659 1.54165 3.66659 1.99998C3.66659 2.45831 3.50339 2.85067 3.177 3.17706C2.85061 3.50345 2.45825 3.66665 1.99992 3.66665ZM6.99992 3.66665C6.54158 3.66665 6.14922 3.50345 5.82284 3.17706C5.49645 2.85067 5.33325 2.45831 5.33325 1.99998C5.33325 1.54165 5.49645 1.14929 5.82284 0.822896C6.14922 0.496507 6.54158 0.333313 6.99992 0.333313C7.45825 0.333313 7.85061 0.496507 8.177 0.822896C8.50339 1.14929 8.66658 1.54165 8.66658 1.99998C8.66658 2.45831 8.50339 2.85067 8.177 3.17706C7.85061 3.50345 7.45825 3.66665 6.99992 3.66665ZM11.9999 3.66665C11.5416 3.66665 11.1492 3.50345 10.8228 3.17706C10.4964 2.85067 10.3333 2.45831 10.3333 1.99998C10.3333 1.54165 10.4964 1.14929 10.8228 0.822896C11.1492 0.496507 11.5416 0.333313 11.9999 0.333313C12.4583 0.333313 12.8506 0.496507 13.177 0.822896C13.5034 1.14929 13.6666 1.54165 13.6666 1.99998C13.6666 2.45831 13.5034 2.85067 13.177 3.17706C12.8506 3.50345 12.4583 3.66665 11.9999 3.66665ZM6.99992 8.66665C6.54158 8.66665 6.14922 8.50345 5.82284 8.17706C5.49645 7.85067 5.33325 7.45831 5.33325 6.99998C5.33325 6.54165 5.49645 6.14929 5.82284 5.8229C6.14922 5.49651 6.54158 5.33331 6.99992 5.33331C7.45825 5.33331 7.85061 5.49651 8.177 5.8229C8.50339 6.14929 8.66658 6.54165 8.66658 6.99998C8.66658 7.45831 8.50339 7.85067 8.177 8.17706C7.85061 8.50345 7.45825 8.66665 6.99992 8.66665ZM7.83325 12.8333V11.4583C7.83325 11.3472 7.85408 11.2396 7.89575 11.1354C7.93742 11.0312 7.99992 10.9375 8.08325 10.8541L12.4374 6.52081C12.5624 6.39581 12.7013 6.30553 12.8541 6.24998C13.0069 6.19442 13.1596 6.16665 13.3124 6.16665C13.4791 6.16665 13.6388 6.1979 13.7916 6.2604C13.9444 6.3229 14.0833 6.41665 14.2083 6.54165L14.9791 7.31248C15.0902 7.43748 15.177 7.57637 15.2395 7.72915C15.302 7.88192 15.3333 8.0347 15.3333 8.18748C15.3333 8.34026 15.3055 8.49651 15.2499 8.65623C15.1944 8.81595 15.1041 8.95831 14.9791 9.08331L10.6458 13.4166C10.5624 13.5 10.4687 13.5625 10.3645 13.6041C10.2603 13.6458 10.1527 13.6666 10.0416 13.6666H8.66658C8.43047 13.6666 8.23256 13.5868 8.07284 13.4271C7.91311 13.2673 7.83325 13.0694 7.83325 12.8333ZM13.3124 8.99998L14.0833 8.18748L13.3124 7.41665L12.5208 8.20831L13.3124 8.99998Z" fill="#1C1B1F"/>
</svg>
