<svg width="16" height="14" viewBox="0 0 16 14" fill="none" xmlns="http://www.w3.org/2000/svg">
<path d="M2.85421 10.3333L4.41671 11.8958C4.56949 12.0486 4.64587 12.2396 4.64587 12.4688C4.64587 12.6979 4.56949 12.8958 4.41671 13.0625C4.25004 13.2292 4.05212 13.3125 3.82296 13.3125C3.59379 13.3125 3.39587 13.2292 3.22921 13.0625L0.250041 10.0833C0.166707 10 0.10768 9.90972 0.0729574 9.8125C0.0382351 9.71528 0.020874 9.61111 0.020874 9.5C0.020874 9.38889 0.0382351 9.28472 0.0729574 9.1875C0.10768 9.09028 0.166707 9 0.250041 8.91667L3.25004 5.91667C3.41671 5.75 3.61115 5.67014 3.83337 5.67708C4.0556 5.68403 4.25004 5.77083 4.41671 5.9375C4.56949 6.10417 4.64935 6.29861 4.65629 6.52083C4.66324 6.74306 4.58337 6.9375 4.41671 7.10417L2.85421 8.66667H8.00004C8.23615 8.66667 8.43407 8.74653 8.59379 8.90625C8.75351 9.06597 8.83337 9.26389 8.83337 9.5C8.83337 9.73611 8.75351 9.93403 8.59379 10.0938C8.43407 10.2535 8.23615 10.3333 8.00004 10.3333H2.85421ZM13.1459 5.33333H8.00004C7.76393 5.33333 7.56601 5.25347 7.40629 5.09375C7.24657 4.93403 7.16671 4.73611 7.16671 4.5C7.16671 4.26389 7.24657 4.06597 7.40629 3.90625C7.56601 3.74653 7.76393 3.66667 8.00004 3.66667H13.1459L11.5834 2.10417C11.4306 1.95139 11.3542 1.76042 11.3542 1.53125C11.3542 1.30208 11.4306 1.10417 11.5834 0.9375C11.75 0.770833 11.948 0.6875 12.1771 0.6875C12.4063 0.6875 12.6042 0.770833 12.7709 0.9375L15.75 3.91667C15.8334 4 15.8924 4.09028 15.9271 4.1875C15.9618 4.28472 15.9792 4.38889 15.9792 4.5C15.9792 4.61111 15.9618 4.71528 15.9271 4.8125C15.8924 4.90972 15.8334 5 15.75 5.08333L12.75 8.08333C12.5834 8.25 12.3889 8.32986 12.1667 8.32292C11.9445 8.31597 11.75 8.22917 11.5834 8.0625C11.4306 7.89583 11.3507 7.70139 11.3438 7.47917C11.3368 7.25694 11.4167 7.0625 11.5834 6.89583L13.1459 5.33333Z" fill="#FFCC00"/>
</svg>
