<svg width="22" height="16" viewBox="0 0 22 16" fill="none" xmlns="http://www.w3.org/2000/svg">
<path d="M18.27 2.60996V8.43996C18.27 9.34996 17.51 10.09 16.58 10.09L1.67999 10.17C0.74999 10.17 -0.0100098 9.42996 -0.0100098 8.51996V2.43996C-0.0100098 2.02996 0.17999 1.64996 0.46999 1.38996C0.71999 1.16996 1.04999 1.03996 1.40999 1.03996L16.57 0.959961C17.5 0.959961 18.26 1.69996 18.26 2.60996H18.27Z" fill="#FFE787"/>
<path d="M21.9999 7.30984V13.0698C21.9999 14.1598 21.1199 15.0498 20.0299 15.0498H6.8699C6.5699 15.0498 6.2899 14.9798 6.0399 14.8698C5.3699 14.5598 4.8999 13.8698 4.8999 13.0798V7.31984C4.8999 6.22984 5.7799 5.33984 6.8699 5.33984H20.0199C21.1099 5.33984 21.9899 6.22984 21.9899 7.31984L21.9999 7.30984Z" fill="#FFCC00"/>
</svg>
