<svg width="20" height="20" viewBox="0 0 20 20" fill="none" xmlns="http://www.w3.org/2000/svg">
<mask id="mask0_142_1293" style="mask-type:alpha" maskUnits="userSpaceOnUse" x="0" y="0" width="20" height="20">
<rect width="20" height="20" fill="#D9D9D9"/>
</mask>
<g mask="url(#mask0_142_1293)">
<path d="M4.16667 17.5C3.70833 17.5 3.31597 17.3368 2.98958 17.0104C2.66319 16.684 2.5 16.2917 2.5 15.8333V4.16667C2.5 3.70833 2.66319 3.31597 2.98958 2.98958C3.31597 2.66319 3.70833 2.5 4.16667 2.5H15.8333C16.2917 2.5 16.684 2.66319 17.0104 2.98958C17.3368 3.31597 17.5 3.70833 17.5 4.16667V15.8333C17.5 16.2917 17.3368 16.684 17.0104 17.0104C16.684 17.3368 16.2917 17.5 15.8333 17.5H4.16667ZM6.66667 5.83333C6.43056 5.83333 6.23264 5.91319 6.07292 6.07292C5.91319 6.23264 5.83333 6.43056 5.83333 6.66667V13.3333C5.83333 13.5694 5.91319 13.7674 6.07292 13.9271C6.23264 14.0868 6.43056 14.1667 6.66667 14.1667C6.90278 14.1667 7.10069 14.0868 7.26042 13.9271C7.42014 13.7674 7.5 13.5694 7.5 13.3333V6.66667C7.5 6.43056 7.42014 6.23264 7.26042 6.07292C7.10069 5.91319 6.90278 5.83333 6.66667 5.83333ZM13.3333 5.83333C13.0972 5.83333 12.8993 5.91319 12.7396 6.07292C12.5799 6.23264 12.5 6.43056 12.5 6.66667V11.6667C12.5 11.9028 12.5799 12.1007 12.7396 12.2604C12.8993 12.4201 13.0972 12.5 13.3333 12.5C13.5694 12.5 13.7674 12.4201 13.9271 12.2604C14.0868 12.1007 14.1667 11.9028 14.1667 11.6667V6.66667C14.1667 6.43056 14.0868 6.23264 13.9271 6.07292C13.7674 5.91319 13.5694 5.83333 13.3333 5.83333ZM10 5.83333C9.76389 5.83333 9.56597 5.91319 9.40625 6.07292C9.24653 6.23264 9.16667 6.43056 9.16667 6.66667V9.16667C9.16667 9.40278 9.24653 9.60069 9.40625 9.76042C9.56597 9.92014 9.76389 10 10 10C10.2361 10 10.434 9.92014 10.5938 9.76042C10.7535 9.60069 10.8333 9.40278 10.8333 9.16667V6.66667C10.8333 6.43056 10.7535 6.23264 10.5938 6.07292C10.434 5.91319 10.2361 5.83333 10 5.83333Z" fill="#213049"/>
</g>
</svg>
