<svg width="16" height="16" viewBox="0 0 16 16" fill="none" xmlns="http://www.w3.org/2000/svg">
<path d="M2.16667 15.5C1.70833 15.5 1.31597 15.3368 0.989583 15.0104C0.663194 14.684 0.5 14.2917 0.5 13.8333V2.16667C0.5 1.70833 0.663194 1.31597 0.989583 0.989583C1.31597 0.663194 1.70833 0.5 2.16667 0.5H13.8333C14.2917 0.5 14.684 0.663194 15.0104 0.989583C15.3368 1.31597 15.5 1.70833 15.5 2.16667V13.8333C15.5 14.2917 15.3368 14.684 15.0104 15.0104C14.684 15.3368 14.2917 15.5 13.8333 15.5H2.16667ZM4.66667 3.83333C4.43056 3.83333 4.23264 3.91319 4.07292 4.07292C3.91319 4.23264 3.83333 4.43056 3.83333 4.66667V11.3333C3.83333 11.5694 3.91319 11.7674 4.07292 11.9271C4.23264 12.0868 4.43056 12.1667 4.66667 12.1667C4.90278 12.1667 5.10069 12.0868 5.26042 11.9271C5.42014 11.7674 5.5 11.5694 5.5 11.3333V4.66667C5.5 4.43056 5.42014 4.23264 5.26042 4.07292C5.10069 3.91319 4.90278 3.83333 4.66667 3.83333ZM11.3333 3.83333C11.0972 3.83333 10.8993 3.91319 10.7396 4.07292C10.5799 4.23264 10.5 4.43056 10.5 4.66667V9.66667C10.5 9.90278 10.5799 10.1007 10.7396 10.2604C10.8993 10.4201 11.0972 10.5 11.3333 10.5C11.5694 10.5 11.7674 10.4201 11.9271 10.2604C12.0868 10.1007 12.1667 9.90278 12.1667 9.66667V4.66667C12.1667 4.43056 12.0868 4.23264 11.9271 4.07292C11.7674 3.91319 11.5694 3.83333 11.3333 3.83333ZM8 3.83333C7.76389 3.83333 7.56597 3.91319 7.40625 4.07292C7.24653 4.23264 7.16667 4.43056 7.16667 4.66667V7.16667C7.16667 7.40278 7.24653 7.60069 7.40625 7.76042C7.56597 7.92014 7.76389 8 8 8C8.23611 8 8.43403 7.92014 8.59375 7.76042C8.75347 7.60069 8.83333 7.40278 8.83333 7.16667V4.66667C8.83333 4.43056 8.75347 4.23264 8.59375 4.07292C8.43403 3.91319 8.23611 3.83333 8 3.83333Z" fill="#FFCC00"/>
</svg>
